<?xml version="1.0" encoding="UTF-8"?>
<svg width="148px" height="32px" viewBox="0 0 148 32" version="1.1" xmlns="http://www.w3.org/2000/svg" xmlns:xlink="http://www.w3.org/1999/xlink">
    <!-- Generator: Sketch 53.1 (72631) - https://sketchapp.com -->
    <title>Group</title>
    <desc>Created with Sketch.</desc>
    <g id="Logo" stroke="none" stroke-width="1" fill="none" fill-rule="evenodd">
        <g id="Logo-for-Website">
            <g id="Group">
                <path d="M42.2857143,0.774193548 L62.6731628,0.774193548 L62.6731628,6.96774194 L48.9813816,6.96774194 L48.9813816,13.1612903 L61.6430601,13.1612903 L61.6430601,19.3548387 L48.9813816,19.3548387 L48.9813816,31.2258065 L42.2857143,31.2258065 L42.2857143,0.774193548 Z M75.1202366,0.774193548 L80.6570385,0.774193548 L93.8766893,31.2258065 L86.3226031,31.2258065 L83.7044255,24.7741935 L71.9011658,24.7741935 L69.3688301,31.2258065 L61.9864277,31.2258065 L75.1202366,0.774193548 Z M77.6954933,9.6344086 L74.0042921,19.0967742 L81.4296155,19.0967742 L77.6954933,9.6344086 Z M116.796474,8.68817204 C116.138349,7.88530065 115.330013,7.26881935 114.37144,6.83870968 C113.412868,6.4086 112.304088,6.19354839 111.045067,6.19354839 C109.786046,6.19354839 108.620039,6.43727355 107.54701,6.92473118 C106.473981,7.41218882 105.544037,8.09318559 104.757149,8.96774194 C103.970261,9.84229828 103.355067,10.8817144 102.911548,12.0860215 C102.468029,13.2903286 102.246273,14.5949751 102.246273,16 C102.246273,17.4336989 102.468029,18.7455138 102.911548,19.9354839 C103.355067,21.125454 103.963107,22.1577017 104.735688,23.0322581 C105.508269,23.9068144 106.416753,24.5878112 107.461168,25.0752688 C108.505583,25.5627265 109.62867,25.8064516 110.830462,25.8064516 C112.203939,25.8064516 113.420021,25.5197161 114.478743,24.9462366 C115.537464,24.372757 116.410182,23.5698976 117.09692,22.5376344 L122.676643,26.7096774 C121.389008,28.5161381 119.758029,29.8494581 117.783655,30.7096774 C115.809282,31.5698968 113.777711,32 111.688881,32 C109.31391,32 107.124964,31.6272439 105.121977,30.8817204 C103.118989,30.136197 101.387862,29.0681073 99.9285424,27.6774194 C98.469223,26.2867314 97.3318294,24.6021604 96.5163274,22.6236559 C95.7008253,20.6451514 95.2930804,18.4372882 95.2930804,16 C95.2930804,13.5627118 95.7008253,11.3548486 96.5163274,9.37634409 C97.3318294,7.39783957 98.469223,5.7132686 99.9285424,4.32258065 C101.387862,2.93189269 103.118989,1.86380301 105.121977,1.11827957 C107.124964,0.372756129 109.31391,0 111.688881,0 C112.547304,0 113.441482,0.0788522581 114.37144,0.23655914 C115.301399,0.394266022 116.217036,0.64515957 117.118381,0.989247312 C118.019725,1.33333505 118.885289,1.79211183 119.715098,2.3655914 C120.544907,2.93907097 121.288862,3.6415729 121.946987,4.47311828 L116.796474,8.68817204 Z M126.582449,0.774193548 L147.227423,0.774193548 L147.227423,6.96774194 L133.278116,6.96774194 L133.278116,12.6451613 L146.454846,12.6451613 L146.454846,18.8387097 L133.278116,18.8387097 L133.278116,25.0322581 L148,25.0322581 L148,31.2258065 L126.582449,31.2258065 L126.582449,0.774193548 Z" id="FACE" fill="#000000"></path>
                <g id="Group-2" fill="#F05136" fill-rule="nonzero">
                    <path d="M13.4076655,0 L20.1114983,0 L20.1114983,6.70967742 L13.4076655,6.70967742 L13.4076655,13.4193548 L6.70383275,13.4193548 L6.70383275,20.1290323 L0,20.1290323 L0,13.4193548 L0,6.70967742 L0,0 L6.70383275,0 L13.4076655,0 Z" id="Combined-Shape"></path>
                    <path d="M31.9721254,25.2903226 L31.9721254,32 L25.2682927,32 L18.5644599,32 L11.8606272,32 L5.15679443,32 L5.15679443,25.2903226 L11.8606272,25.2903226 L11.8606272,18.5806452 L18.5644599,18.5806452 L18.5644599,11.8709677 L25.2682927,11.8709677 L25.2682927,5.16129032 L31.9721254,5.16129032 L31.9721254,11.8709677 L31.9721254,18.5806452 L31.9721254,25.2903226 Z" id="Combined-Shape"></path>
                </g>
            </g>
        </g>
    </g>
</svg>